<?xml version="1.0" encoding="UTF-8"?>
<!--Generator: Apple Native CoreSVG 341-->
<!DOCTYPE svg
PUBLIC "-//W3C//DTD SVG 1.1//EN"
       "http://www.w3.org/Graphics/SVG/1.1/DTD/svg11.dtd">
<svg version="1.1" xmlns="http://www.w3.org/2000/svg" xmlns:xlink="http://www.w3.org/1999/xlink" viewBox="0 0 3300 2200">
 <!--glyph: "", point size: 100.0, font version: "21.1d1e1", template writer version: "138.0.0"-->
 <style>.defaults {-sfsymbols-draw-reverses-motion-groups:true}

.monochrome-0 {-sfsymbols-motion-group:1;-sfsymbols-layer-tags:56b6f213441009e2 _enclosure.stroke viewfinder}
.monochrome-1 {-sfsymbols-motion-group:0;-sfsymbols-always-pulses:true;-sfsymbols-layer-tags:143a8d3b9f0eaffd 56b6f213441009e2 arrow.clockwise}

.multicolor-0:tintColor {-sfsymbols-motion-group:1;-sfsymbols-layer-tags:56b6f213441009e2 _enclosure.stroke viewfinder}
.multicolor-1:tintColor {-sfsymbols-motion-group:0;-sfsymbols-always-pulses:true;-sfsymbols-layer-tags:143a8d3b9f0eaffd 56b6f213441009e2 arrow.clockwise}

.hierarchical-0:secondary {-sfsymbols-motion-group:1;-sfsymbols-layer-tags:56b6f213441009e2 _enclosure.stroke viewfinder}
.hierarchical-1:primary {-sfsymbols-motion-group:0;-sfsymbols-always-pulses:true;-sfsymbols-layer-tags:143a8d3b9f0eaffd 56b6f213441009e2 arrow.clockwise}

.SFSymbolsPreviewWireframe {fill:none;opacity:1.0;stroke:black;stroke-width:0.5}
</style>
 <g id="Notes">
  <rect height="2200" id="artboard" style="fill:white;opacity:1" width="3300" x="0" y="0"/>
  <line style="fill:none;stroke:black;opacity:1;stroke-width:0.5;" x1="263" x2="3036" y1="292" y2="292"/>
  <text style="stroke:none;fill:black;font-family:sans-serif;font-size:13;font-weight:bold;" transform="matrix(1 0 0 1 263 322)">Weight/Scale Variations</text>
  <text style="stroke:none;fill:black;font-family:sans-serif;font-size:13;text-anchor:middle;" transform="matrix(1 0 0 1 559.711 322)">Ultralight</text>
  <text style="stroke:none;fill:black;font-family:sans-serif;font-size:13;text-anchor:middle;" transform="matrix(1 0 0 1 856.422 322)">Thin</text>
  <text style="stroke:none;fill:black;font-family:sans-serif;font-size:13;text-anchor:middle;" transform="matrix(1 0 0 1 1153.13 322)">Light</text>
  <text style="stroke:none;fill:black;font-family:sans-serif;font-size:13;text-anchor:middle;" transform="matrix(1 0 0 1 1449.84 322)">Regular</text>
  <text style="stroke:none;fill:black;font-family:sans-serif;font-size:13;text-anchor:middle;" transform="matrix(1 0 0 1 1746.56 322)">Medium</text>
  <text style="stroke:none;fill:black;font-family:sans-serif;font-size:13;text-anchor:middle;" transform="matrix(1 0 0 1 2043.27 322)">Semibold</text>
  <text style="stroke:none;fill:black;font-family:sans-serif;font-size:13;text-anchor:middle;" transform="matrix(1 0 0 1 2339.98 322)">Bold</text>
  <text style="stroke:none;fill:black;font-family:sans-serif;font-size:13;text-anchor:middle;" transform="matrix(1 0 0 1 2636.69 322)">Heavy</text>
  <text style="stroke:none;fill:black;font-family:sans-serif;font-size:13;text-anchor:middle;" transform="matrix(1 0 0 1 2933.4 322)">Black</text>
  <line style="fill:none;stroke:black;opacity:1;stroke-width:0.5;" x1="263" x2="3036" y1="1903" y2="1903"/>
  <g transform="matrix(0.2 0 0 0.2 263 1933)">
   <path d="m46.2402 4.15039c21.7773 0 39.4531-17.627 39.4531-39.4043s-17.6758-39.4043-39.4531-39.4043c-21.7285 0-39.4043 17.627-39.4043 39.4043s17.6758 39.4043 39.4043 39.4043Zm0-7.42188c-17.6758 0-31.9336-14.3066-31.9336-31.9824s14.2578-31.9824 31.9336-31.9824 31.9824 14.3066 31.9824 31.9824-14.3066 31.9824-31.9824 31.9824Zm3.61328-17.7734v-28.4668c0-2.24609-1.46484-3.75977-3.71094-3.75977-2.14844 0-3.61328 1.51367-3.61328 3.75977v28.4668c0 2.19727 1.46484 3.71094 3.61328 3.71094 2.24609 0 3.71094-1.51367 3.71094-3.71094Zm-17.8223-10.5957h28.418c2.19727 0 3.71094-1.46484 3.71094-3.61328 0-2.19727-1.51367-3.71094-3.71094-3.71094h-28.418c-2.24609 0-3.75977 1.51367-3.75977 3.71094 0 2.14844 1.51367 3.61328 3.75977 3.61328Z"/>
  </g>
  <g transform="matrix(0.2 0 0 0.2 281.506 1933)">
   <path d="m58.5449 14.5508c27.4902 0 49.8047-22.3145 49.8047-49.8047s-22.3145-49.8047-49.8047-49.8047-49.8047 22.3145-49.8047 49.8047 22.3145 49.8047 49.8047 49.8047Zm0-8.30078c-22.9492 0-41.5039-18.5547-41.5039-41.5039s18.5547-41.5039 41.5039-41.5039 41.5039 18.5547 41.5039 41.5039-18.5547 41.5039-41.5039 41.5039Zm4.05273-23.0957v-36.9141c0-2.49023-1.70898-4.19922-4.15039-4.19922-2.39258 0-4.05273 1.70898-4.05273 4.19922v36.9141c0 2.44141 1.66016 4.15039 4.05273 4.15039 2.44141 0 4.15039-1.66016 4.15039-4.15039Zm-22.5586-14.4043h36.9629c2.44141 0 4.15039-1.61133 4.15039-4.00391 0-2.44141-1.70898-4.15039-4.15039-4.15039h-36.9629c-2.49023 0-4.15039 1.70898-4.15039 4.15039 0 2.39258 1.66016 4.00391 4.15039 4.00391Z"/>
  </g>
  <g transform="matrix(0.2 0 0 0.2 304.924 1933)">
   <path d="m74.8535 28.3203c35.1074 0 63.623-28.4668 63.623-63.5742s-28.5156-63.623-63.623-63.623-63.5742 28.5156-63.5742 63.623 28.4668 63.5742 63.5742 63.5742Zm0-9.08203c-30.127 0-54.4922-24.3652-54.4922-54.4922s24.3652-54.4922 54.4922-54.4922 54.4922 24.3652 54.4922 54.4922-24.3652 54.4922-54.4922 54.4922Zm4.44336-30.3223v-48.4863c0-2.73438-1.85547-4.63867-4.54102-4.63867-2.58789 0-4.44336 1.9043-4.44336 4.63867v48.4863c0 2.68555 1.85547 4.58984 4.44336 4.58984 2.68555 0 4.54102-1.85547 4.54102-4.58984Zm-28.7109-19.7754h48.4863c2.68555 0 4.58984-1.80664 4.58984-4.39453 0-2.73438-1.85547-4.58984-4.58984-4.58984h-48.4863c-2.73438 0-4.58984 1.85547-4.58984 4.58984 0 2.58789 1.85547 4.39453 4.58984 4.39453Z"/>
  </g>
  <text style="stroke:none;fill:black;font-family:sans-serif;font-size:13;font-weight:bold;" transform="matrix(1 0 0 1 263 1953)">Design Variations</text>
  <text style="stroke:none;fill:black;font-family:sans-serif;font-size:13;" transform="matrix(1 0 0 1 263 1971)">Symbols are supported in up to nine weights and three scales.</text>
  <text style="stroke:none;fill:black;font-family:sans-serif;font-size:13;" transform="matrix(1 0 0 1 263 1989)">For optimal layout with text and other symbols, vertically align</text>
  <text style="stroke:none;fill:black;font-family:sans-serif;font-size:13;" transform="matrix(1 0 0 1 263 2007)">symbols with the adjacent text.</text>
  <line style="fill:none;stroke:#00AEEF;stroke-width:0.5;opacity:1.0;" x1="776" x2="776" y1="1919" y2="1933"/>
  <g transform="matrix(0.2 0 0 0.2 776 1933)">
   <path d="m16.5527 0.78125c2.58789 0 3.85742-0.976562 4.78516-3.71094l20.5566-57.5195h0.244141l20.6055 57.5195c0.927734 2.73438 2.19727 3.71094 4.73633 3.71094 2.58789 0 4.24805-1.5625 4.24805-4.00391 0-0.830078-0.146484-1.61133-0.537109-2.63672l-22.9004-60.9863c-1.12305-2.97852-3.125-4.49219-6.25-4.49219-3.02734 0-5.07812 1.46484-6.15234 4.44336l-22.9004 61.084c-0.390625 1.02539-0.537109 1.80664-0.537109 2.63672 0 2.44141 1.5625 3.95508 4.10156 3.95508Zm10.2051-20.9473h30.6641c2.00195 0 3.66211-1.66016 3.66211-3.66211 0-2.05078-1.66016-3.66211-3.66211-3.66211h-30.6641c-2.00195 0-3.66211 1.61133-3.66211 3.66211 0 2.00195 1.66016 3.66211 3.66211 3.66211Z"/>
  </g>
  <line style="fill:none;stroke:#00AEEF;stroke-width:0.5;opacity:1.0;" x1="792.836" x2="792.836" y1="1919" y2="1933"/>
  <text style="stroke:none;fill:black;font-family:sans-serif;font-size:13;font-weight:bold;" transform="matrix(1 0 0 1 776 1953)">Margins</text>
  <text style="stroke:none;fill:black;font-family:sans-serif;font-size:13;" transform="matrix(1 0 0 1 776 1971)">Leading and trailing margins on the left and right side of each symbol</text>
  <text style="stroke:none;fill:black;font-family:sans-serif;font-size:13;" transform="matrix(1 0 0 1 776 1989)">can be adjusted by modifying the x-location of the margin guidelines.</text>
  <text style="stroke:none;fill:black;font-family:sans-serif;font-size:13;" transform="matrix(1 0 0 1 776 2007)">Modifications are automatically applied proportionally to all</text>
  <text style="stroke:none;fill:black;font-family:sans-serif;font-size:13;" transform="matrix(1 0 0 1 776 2025)">scales and weights.</text>
  <g transform="matrix(0.2 0 0 0.2 1289 1933)">
   <path d="m14.209 13.1348 7.86133 7.86133c4.29688 4.39453 9.32617 4.10156 13.8672-1.02539l60.6934-68.2129-4.88281-4.88281-60.2539 67.6758c-1.80664 1.95312-3.4668 2.44141-5.81055 0.0976562l-5.17578-5.12695c-2.29492-2.29492-1.80664-3.95508 0.195312-5.81055l67.4805-62.1582-4.88281-4.83398-68.0664 62.5977c-4.98047 4.58984-5.32227 9.47266-1.02539 13.8184Zm44.873-97.4609c-2.05078 2.00195-2.24609 4.88281-1.07422 6.78711 1.12305 1.80664 3.4668 3.02734 6.5918 2.24609 5.85938-1.66016 12.5977-2.39258 18.8965 0.927734l-2.68555 7.12891c-1.61133 4.00391-0.732422 6.88477 1.70898 9.42383l10.2539 10.3027c2.34375 2.39258 4.54102 2.44141 7.08008 1.95312l4.44336-0.732422 2.58789 2.53906-0.195312 2.24609c-0.0976562 2.29492 0.537109 4.29688 2.7832 6.49414l3.36914 3.32031c2.29492 2.29492 5.51758 2.49023 7.8125 0.195312l12.9883-13.0371c2.29492-2.34375 2.14844-5.37109-0.195312-7.66602l-3.41797-3.41797c-2.19727-2.19727-4.05273-3.02734-6.34766-2.88086l-2.34375 0.244141-2.44141-2.44141 1.02539-4.6875c0.634766-2.73438-0.244141-4.98047-2.88086-7.61719l-11.2793-11.1816c-12.9395-12.8418-35.5957-11.0352-46.6797-0.146484Zm7.08008 2.05078c8.78906-6.39648 25.9766-5.66406 33.6914 1.95312l12.3047 12.207c1.02539 1.02539 1.2207 1.80664 0.927734 3.32031l-1.46484 6.64062 6.73828 6.68945 4.39453-0.244141c1.12305-0.0488281 1.51367 0.0488281 2.34375 0.878906l2.53906 2.49023-10.8398 10.8398-2.49023-2.49023c-0.830078-0.878906-0.976562-1.2207-0.927734-2.39258l0.292969-4.3457-6.68945-6.73828-6.83594 1.17188c-1.41602 0.292969-2.05078 0.195312-3.17383-0.878906l-8.93555-8.88672c-1.07422-1.02539-1.17188-1.70898-0.488281-3.36914l4.58984-11.4746c-6.10352-6.34766-17.041-7.51953-25.5859-4.58984-0.683594 0.244141-0.927734-0.390625-0.390625-0.78125Z"/>
  </g>
  <text style="stroke:none;fill:black;font-family:sans-serif;font-size:13;font-weight:bold;" transform="matrix(1 0 0 1 1289 1953)">Exporting</text>
  <text style="stroke:none;fill:black;font-family:sans-serif;font-size:13;" transform="matrix(1 0 0 1 1289 1971)">Symbols should be outlined when exporting to ensure the</text>
  <text style="stroke:none;fill:black;font-family:sans-serif;font-size:13;" transform="matrix(1 0 0 1 1289 1989)">design is preserved when submitting to Xcode.</text>
  <text id="template-version" style="stroke:none;fill:black;font-family:sans-serif;font-size:13;text-anchor:end;" transform="matrix(1 0 0 1 3036 1933)">Template v.7.0</text>
  <text style="stroke:none;fill:black;font-family:sans-serif;font-size:13;text-anchor:end;" transform="matrix(1 0 0 1 3036 1951)">Requires Xcode 26 or greater</text>
  <text id="descriptive-name" style="stroke:none;fill:black;font-family:sans-serif;font-size:13;text-anchor:end;" transform="matrix(1 0 0 1 3036 1969)">Generated from viewfinder</text>
  <text style="stroke:none;fill:black;font-family:sans-serif;font-size:13;text-anchor:end;" transform="matrix(1 0 0 1 3036 1987)">Typeset at 100.0 points</text>
  <text style="stroke:none;fill:black;font-family:sans-serif;font-size:13;" transform="matrix(1 0 0 1 263 726)">Small</text>
  <text style="stroke:none;fill:black;font-family:sans-serif;font-size:13;" transform="matrix(1 0 0 1 263 1156)">Medium</text>
  <text style="stroke:none;fill:black;font-family:sans-serif;font-size:13;" transform="matrix(1 0 0 1 263 1586)">Large</text>
 </g>
 <g id="Guides">
  <g id="H-reference" style="fill:#27AAE1;stroke:none;" transform="matrix(1 0 0 1 339 696)">
   <path d="M0.993654 0L3.63775 0L29.3281-67.1323L30.0303-67.1323L30.0303-70.459L28.1226-70.459ZM11.6885-24.4799L46.9815-24.4799L46.2315-26.7285L12.4385-26.7285ZM55.1196 0L57.7637 0L30.6382-70.459L29.4326-70.459L29.4326-67.1323Z"/>
  </g>
  <line id="Baseline-S" style="fill:none;stroke:#27AAE1;opacity:1;stroke-width:0.5;" x1="263" x2="3036" y1="696" y2="696"/>
  <line id="Capline-S" style="fill:none;stroke:#27AAE1;opacity:1;stroke-width:0.5;" x1="263" x2="3036" y1="625.541" y2="625.541"/>
  <g id="H-reference" style="fill:#27AAE1;stroke:none;" transform="matrix(1 0 0 1 339 1126)">
   <path d="M0.993654 0L3.63775 0L29.3281-67.1323L30.0303-67.1323L30.0303-70.459L28.1226-70.459ZM11.6885-24.4799L46.9815-24.4799L46.2315-26.7285L12.4385-26.7285ZM55.1196 0L57.7637 0L30.6382-70.459L29.4326-70.459L29.4326-67.1323Z"/>
  </g>
  <line id="Baseline-M" style="fill:none;stroke:#27AAE1;opacity:1;stroke-width:0.5;" x1="263" x2="3036" y1="1126" y2="1126"/>
  <line id="Capline-M" style="fill:none;stroke:#27AAE1;opacity:1;stroke-width:0.5;" x1="263" x2="3036" y1="1055.54" y2="1055.54"/>
  <g id="H-reference" style="fill:#27AAE1;stroke:none;" transform="matrix(1 0 0 1 339 1556)">
   <path d="M0.993654 0L3.63775 0L29.3281-67.1323L30.0303-67.1323L30.0303-70.459L28.1226-70.459ZM11.6885-24.4799L46.9815-24.4799L46.2315-26.7285L12.4385-26.7285ZM55.1196 0L57.7637 0L30.6382-70.459L29.4326-70.459L29.4326-67.1323Z"/>
  </g>
  <line id="Baseline-L" style="fill:none;stroke:#27AAE1;opacity:1;stroke-width:0.5;" x1="263" x2="3036" y1="1556" y2="1556"/>
  <line id="Capline-L" style="fill:none;stroke:#27AAE1;opacity:1;stroke-width:0.5;" x1="263" x2="3036" y1="1485.54" y2="1485.54"/>
  <line id="right-margin-Black-S" style="fill:none;stroke:#00AEEF;stroke-width:0.5;opacity:1.0;" x1="2983.25" x2="2983.25" y1="600.785" y2="720.121"/>
  <line id="left-margin-Black-S" style="fill:none;stroke:#00AEEF;stroke-width:0.5;opacity:1.0;" x1="2883.55" x2="2883.55" y1="600.785" y2="720.121"/>
  <line id="right-margin-Regular-S" style="fill:none;stroke:#00AEEF;stroke-width:0.5;opacity:1.0;" x1="1497.57" x2="1497.57" y1="600.785" y2="720.121"/>
  <line id="left-margin-Regular-S" style="fill:none;stroke:#00AEEF;stroke-width:0.5;opacity:1.0;" x1="1402.11" x2="1402.11" y1="600.785" y2="720.121"/>
  <line id="right-margin-Ultralight-S" style="fill:none;stroke:#00AEEF;stroke-width:0.5;opacity:1.0;" x1="604.58" x2="604.58" y1="600.785" y2="720.121"/>
  <line id="left-margin-Ultralight-S" style="fill:none;stroke:#00AEEF;stroke-width:0.5;opacity:1.0;" x1="514.842" x2="514.842" y1="600.785" y2="720.121"/>
 </g>
 <g id="Symbols">
  <g id="Black-S" transform="matrix(1 0 0 1 2883.55 696)">
   <path class="monochrome-0 multicolor-0:tintColor hierarchical-0:secondary SFSymbolsPreviewWireframe" d="M9.76562-50.9766C9.76562-47.3145 12.6953-44.3848 16.3574-44.3848C20.0195-44.3848 22.9492-47.3145 22.9492-50.9766L22.9492-58.1055C22.9492-60.7422 24.2676-62.1094 26.9531-62.1094L34.2773-62.1094C37.9883-62.1094 40.8691-64.9902 40.8691-68.7012C40.8691-72.4121 37.9883-75.293 34.2773-75.293L26.9531-75.293C16.5527-75.293 9.76562-68.457 9.76562-58.1055ZM89.9414-50.9766L89.9414-58.1055C89.9414-68.457 83.1543-75.293 72.7539-75.293L65.4297-75.293C61.7188-75.293 58.8379-72.4121 58.8379-68.7012C58.8379-64.9902 61.7188-62.1094 65.4297-62.1094L72.7539-62.1094C75.4395-62.1094 76.7578-60.7422 76.7578-58.1055L76.7578-50.9766C76.7578-47.3145 79.6875-44.3848 83.3496-44.3848C87.0117-44.3848 89.9414-47.3145 89.9414-50.9766ZM9.76562-19.3848L9.76562-12.2559C9.76562-1.9043 16.5527 4.93164 26.9531 4.93164L34.2773 4.93164C37.9883 4.93164 40.8691 2.05078 40.8691-1.66016C40.8691-5.37109 37.9883-8.25195 34.2773-8.25195L26.9531-8.25195C24.2676-8.25195 22.9492-9.61914 22.9492-12.2559L22.9492-19.3848C22.9492-23.0469 20.0195-25.9766 16.3574-25.9766C12.6953-25.9766 9.76562-23.0469 9.76562-19.3848ZM89.9414-19.3848C89.9414-23.0469 87.0117-25.9766 83.3496-25.9766C79.6875-25.9766 76.7578-23.0469 76.7578-19.3848L76.7578-12.2559C76.7578-9.61914 75.4395-8.25195 72.7539-8.25195L65.4297-8.25195C61.7188-8.25195 58.8379-5.37109 58.8379-1.66016C58.8379 2.05078 61.7188 4.93164 65.4297 4.93164L72.7539 4.93164C83.1543 4.93164 89.9414-1.9043 89.9414-12.2559Z"/>
   <path class="monochrome-1 multicolor-1:tintColor hierarchical-1:primary SFSymbolsPreviewWireframe" d="M49.8548-15.7358C59.9461-15.7358 68.1321-23.9172 68.1321-34.0116C68.1321-36.2034 66.3257-38.0113 64.1293-38.0113C61.9071-38.0113 60.1007-36.2034 60.1007-34.0116C60.1007-28.3647 55.5017-23.7612 49.8548-23.7612C44.2079-23.7612 39.6059-28.3647 39.6059-34.0116C39.6059-39.6585 44.2079-44.2575 49.8548-44.2575C50.6633-44.2575 51.4365-44.1911 52.179-44.0127C54.4196-43.2769 57.4566-44.8046 57.4446-47.8735C57.4356-49.6619 56.1925-51.2549 54.5627-51.7166C53.0498-52.0899 51.4844-52.2904 49.8548-52.2904C39.7604-52.2904 31.5774-44.1045 31.5774-34.0131C31.5774-23.9172 39.7604-15.7358 49.8548-15.7358ZM53.3002-48.6244L47.4603-42.9397C46.8311-42.309 46.3834-41.6006 46.3834-40.4917C46.3834-38.3532 48.106-36.6336 50.2385-36.6336C51.256-36.6336 52.1455-36.9915 52.8401-37.6846L60.4636-45.4804C61.2711-46.285 61.6854-47.2248 61.6854-48.3322C61.6854-49.3816 61.2467-50.3474 60.4636-51.1595L52.8371-58.9493C52.1136-59.6987 51.2515-60.0522 50.2415-60.0522C48.109-60.0522 46.3834-58.3096 46.3834-56.1422C46.3834-55.0348 46.8022-54.2945 47.4618-53.6927Z"/>
  </g>
  <g id="Regular-S" transform="matrix(1 0 0 1 1402.11 696)">
   <path class="monochrome-0 multicolor-0:tintColor hierarchical-0:secondary SFSymbolsPreviewWireframe" d="M9.76562-51.8066C9.76562-49.9023 11.377-48.291 13.2812-48.291C15.2344-48.291 16.7969-49.9023 16.7969-51.8066L16.7969-58.9844C16.7969-63.3789 19.5312-66.1133 23.9746-66.1133L31.2988-66.1133C33.2031-66.1133 34.8145-67.7246 34.8145-69.6289C34.8145-71.582 33.2031-73.1934 31.2988-73.1934L23.9746-73.1934C15.1855-73.1934 9.76562-67.6758 9.76562-58.9844ZM85.6934-51.8066L85.6934-58.9844C85.6934-67.6758 80.2734-73.1934 71.5332-73.1934L64.1602-73.1934C62.2559-73.1934 60.6445-71.582 60.6445-69.6289C60.6445-67.7246 62.2559-66.1133 64.1602-66.1133L71.5332-66.1133C75.9766-66.1133 78.6621-63.3789 78.6621-58.9844L78.6621-51.8066C78.6621-49.9023 80.2734-48.291 82.1777-48.291C84.082-48.291 85.6934-49.9023 85.6934-51.8066ZM9.76562-18.5547L9.76562-11.4258C9.76562-2.68555 15.1855 2.7832 23.9746 2.7832L31.2988 2.7832C33.2031 2.7832 34.8145 1.17188 34.8145-0.732422C34.8145-2.68555 33.2031-4.29688 31.2988-4.29688L23.9746-4.29688C19.5312-4.29688 16.7969-7.03125 16.7969-11.4258L16.7969-18.5547C16.7969-20.5078 15.2344-22.1191 13.2812-22.1191C11.377-22.1191 9.76562-20.5078 9.76562-18.5547ZM85.6934-18.5547C85.6934-20.5078 84.082-22.1191 82.1777-22.1191C80.2734-22.1191 78.6621-20.5078 78.6621-18.5547L78.6621-11.4258C78.6621-7.03125 75.9766-4.29688 71.5332-4.29688L64.1602-4.29688C62.2559-4.29688 60.6445-2.68555 60.6445-0.732422C60.6445 1.17188 62.2559 2.7832 64.1602 2.7832L71.5332 2.7832C80.2734 2.7832 85.6934-2.68555 85.6934-11.4258Z"/>
   <path class="monochrome-1 multicolor-1:tintColor hierarchical-1:primary SFSymbolsPreviewWireframe" d="M47.7309-16.3005C57.4419-16.3005 65.3035-24.1743 65.3035-33.887C65.3035-35.3837 64.069-36.6043 62.5845-36.6043C61.0896-36.6043 59.8551-35.3837 59.8551-33.887C59.8551-27.1953 54.4225-21.775 47.7309-21.775C41.0393-21.775 35.6051-27.1953 35.6051-33.887C35.6051-40.5786 41.0393-46.0112 47.7309-46.0112C48.9812-46.0112 50.1753-45.8455 51.3008-45.4785C52.9053-44.9104 54.9746-45.9262 54.9681-48.0387C54.9632-49.4694 53.9338-50.3516 52.921-50.6594C51.2822-51.1809 49.5408-51.4456 47.7309-51.4456C38.0182-51.4456 30.1583-43.5841 30.1583-33.8731C30.1583-24.1743 38.0182-16.3005 47.7309-16.3005ZM51.9841-48.5266L45.7242-42.4067C45.2586-41.955 44.9843-41.3835 44.9843-40.6593C44.9843-39.1696 46.1546-38.001 47.6115-38.001C48.3705-38.001 48.9747-38.2667 49.4539-38.7304L57.1159-46.4611C57.6535-46.997 57.9279-47.6361 57.9279-48.4037C57.9279-49.1175 57.6291-49.7966 57.1159-50.3218L49.4523-58.1082C48.961-58.61 48.3533-58.888 47.6132-58.888C46.1562-58.888 44.9843-57.681 44.9843-56.1793C44.9843-55.4412 45.2465-54.8559 45.7103-54.4163Z"/>
  </g>
  <g id="Ultralight-S" transform="matrix(1 0 0 1 514.842 696)">
   <path class="monochrome-0 multicolor-0:tintColor hierarchical-0:secondary SFSymbolsPreviewWireframe" d="M9.76562-49.6724C9.76562-49.085 10.2417-48.5635 10.8745-48.5635C11.4654-48.5635 11.9834-49.085 11.9834-49.6724L11.9834-57.3042C11.9834-64.1963 15.8076-68.0659 22.7031-68.0659L30.3906-68.0659C30.978-68.0659 31.4541-68.542 31.4541-69.1748C31.4541-69.7656 30.978-70.2871 30.3906-70.2871L22.7031-70.2871C14.4136-70.2871 9.76562-65.5869 9.76562-57.3042ZM79.9717-49.6724L79.9717-57.3042C79.9717-65.5869 75.3692-70.2871 67.0376-70.2871L59.3921-70.2871C58.7593-70.2871 58.2832-69.7656 58.2832-69.1748C58.2832-68.542 58.7593-68.0659 59.3921-68.0659L67.0376-68.0659C73.9331-68.0659 77.7993-64.1963 77.7993-57.3042L77.7993-49.6724C77.7993-49.085 78.2754-48.5635 78.8628-48.5635C79.4956-48.5635 79.9717-49.085 79.9717-49.6724ZM9.76562-20.6435L9.76562-13.0151C9.76562-4.72899 14.4136-0.0322044 22.7031-0.0322044L30.3906-0.0322044C30.978-0.0322044 31.4541-0.553697 31.4541-1.14111C31.4541-1.77735 30.978-2.25343 30.3906-2.25343L22.7031-2.25343C15.8076-2.25343 11.9834-6.12305 11.9834-13.0151L11.9834-20.6435C11.9834-21.2344 11.4654-21.7559 10.8745-21.7559C10.2417-21.7559 9.76562-21.2344 9.76562-20.6435ZM79.9717-20.6435C79.9717-21.2344 79.4956-21.7559 78.8628-21.7559C78.2754-21.7559 77.7993-21.2344 77.7993-20.6435L77.7993-13.0151C77.7993-6.12305 73.9331-2.25343 67.0376-2.25343L59.3921-2.25343C58.7593-2.25343 58.2832-1.77735 58.2832-1.14111C58.2832-0.553697 58.7593-0.0322044 59.3921-0.0322044L67.0376-0.0322044C75.3692-0.0322044 79.9717-4.72899 79.9717-13.0151Z"/>
   <path class="monochrome-1 multicolor-1:tintColor hierarchical-1:primary SFSymbolsPreviewWireframe" d="M44.8693-17.369C54.0053-17.369 61.3923-24.7804 61.3923-33.902C61.3923-34.4613 60.9463-34.8971 60.4115-34.8971C59.8623-34.8971 59.4164-34.4613 59.4164-33.902C59.4164-25.8701 52.9012-19.3793 44.8693-19.3793C36.8374-19.3793 30.3366-25.8701 30.3366-33.902C30.3366-41.9339 36.8374-48.4491 44.8693-48.4491C46.8591-48.4491 48.7326-48.0467 50.4652-47.3181C51.0846-47.0514 51.7941-47.4271 51.8517-48.128C51.8949-48.6998 51.5153-49.0085 51.0833-49.175C49.2635-49.9537 47.1246-50.4149 44.8693-50.4149C35.7477-50.4149 28.3463-43.028 28.3463-33.892C28.3463-24.7804 35.7477-17.369 44.8693-17.369ZM50.817-48.3058L42.9776-40.4302C42.7653-40.2279 42.6764-39.9655 42.6764-39.6844C42.6764-39.1439 43.1022-38.7036 43.6659-38.7036C43.9827-38.7036 44.2007-38.8126 44.3741-38.9904L52.6646-47.4248C52.992-47.7666 53.1054-48.0234 53.1054-48.3202C53.1054-48.6114 52.9676-48.8882 52.6646-49.1912L44.3885-57.6656C44.2151-57.8535 44.0015-57.9869 43.6515-57.9869C43.0879-57.9869 42.6764-57.5122 42.6764-56.9717C42.6764-56.6805 42.7653-56.4325 42.9676-56.2303Z"/>
  </g>
 </g>
</svg>
