<?xml version="1.0" encoding="UTF-8"?>
<!--Generator: Apple Native CoreSVG 341-->
<!DOCTYPE svg
PUBLIC "-//W3C//DTD SVG 1.1//EN"
       "http://www.w3.org/Graphics/SVG/1.1/DTD/svg11.dtd">
<svg version="1.1" xmlns="http://www.w3.org/2000/svg" xmlns:xlink="http://www.w3.org/1999/xlink" viewBox="0 0 3300 2200">
 <!--glyph: "", point size: 100.0, font version: "21.1d1e1", template writer version: "138.0.0"-->
 <style>.defaults {-sfsymbols-draw-reverses-motion-groups:false}

.monochrome-0 {-sfsymbols-motion-group:1;-sfsymbols-indices:0 1 2 3;-sfsymbols-layer-tags:-3c2eda41ee5ddf02 _enclosure.stroke viewfinder}
.monochrome-1 {-sfsymbols-motion-group:0;-sfsymbols-always-pulses:true;-sfsymbols-layer-tags:-3c2eda41ee5ddf02}

.multicolor-0:tintColor {-sfsymbols-motion-group:1;-sfsymbols-indices:0 1 2 3;-sfsymbols-layer-tags:-3c2eda41ee5ddf02 _enclosure.stroke viewfinder}
.multicolor-1:tintColor {-sfsymbols-motion-group:0;-sfsymbols-always-pulses:true;-sfsymbols-layer-tags:-3c2eda41ee5ddf02}

.hierarchical-0:secondary {-sfsymbols-motion-group:1;-sfsymbols-indices:0 1 2 3;-sfsymbols-layer-tags:-3c2eda41ee5ddf02 _enclosure.stroke viewfinder}
.hierarchical-1:primary {-sfsymbols-motion-group:0;-sfsymbols-always-pulses:true;-sfsymbols-layer-tags:-3c2eda41ee5ddf02}

.shapeGroupLayer-0 {-sfsymbols-fill-action:draw;-sfsymbols-indices:4}
.shapeGroupLayer-1 {-sfsymbols-fill-action:erase;-sfsymbols-indices:5}
.shapeGroupLayer-2 {-sfsymbols-fill-action:draw;-sfsymbols-indices:6}
.shapeGroupLayer-3 {-sfsymbols-fill-action:draw;-sfsymbols-indices:7 8}

.SFSymbolsPreviewWireframe {fill:none;opacity:1.0;stroke:black;stroke-width:0.5}
</style>
 <g id="Notes">
  <rect height="2200" id="artboard" style="fill:white;opacity:1" width="3300" x="0" y="0"/>
  <line style="fill:none;stroke:black;opacity:1;stroke-width:0.5;" x1="263" x2="3036" y1="292" y2="292"/>
  <text style="stroke:none;fill:black;font-family:sans-serif;font-size:13;font-weight:bold;" transform="matrix(1 0 0 1 263 322)">Weight/Scale Variations</text>
  <text style="stroke:none;fill:black;font-family:sans-serif;font-size:13;text-anchor:middle;" transform="matrix(1 0 0 1 559.711 322)">Ultralight</text>
  <text style="stroke:none;fill:black;font-family:sans-serif;font-size:13;text-anchor:middle;" transform="matrix(1 0 0 1 856.422 322)">Thin</text>
  <text style="stroke:none;fill:black;font-family:sans-serif;font-size:13;text-anchor:middle;" transform="matrix(1 0 0 1 1153.13 322)">Light</text>
  <text style="stroke:none;fill:black;font-family:sans-serif;font-size:13;text-anchor:middle;" transform="matrix(1 0 0 1 1449.84 322)">Regular</text>
  <text style="stroke:none;fill:black;font-family:sans-serif;font-size:13;text-anchor:middle;" transform="matrix(1 0 0 1 1746.56 322)">Medium</text>
  <text style="stroke:none;fill:black;font-family:sans-serif;font-size:13;text-anchor:middle;" transform="matrix(1 0 0 1 2043.27 322)">Semibold</text>
  <text style="stroke:none;fill:black;font-family:sans-serif;font-size:13;text-anchor:middle;" transform="matrix(1 0 0 1 2339.98 322)">Bold</text>
  <text style="stroke:none;fill:black;font-family:sans-serif;font-size:13;text-anchor:middle;" transform="matrix(1 0 0 1 2636.69 322)">Heavy</text>
  <text style="stroke:none;fill:black;font-family:sans-serif;font-size:13;text-anchor:middle;" transform="matrix(1 0 0 1 2933.4 322)">Black</text>
  <line style="fill:none;stroke:black;opacity:1;stroke-width:0.5;" x1="263" x2="3036" y1="1903" y2="1903"/>
  <g transform="matrix(0.2 0 0 0.2 263 1933)">
   <path d="m46.2402 4.15039c21.7773 0 39.4531-17.627 39.4531-39.4043s-17.6758-39.4043-39.4531-39.4043c-21.7285 0-39.4043 17.627-39.4043 39.4043s17.6758 39.4043 39.4043 39.4043Zm0-7.42188c-17.6758 0-31.9336-14.3066-31.9336-31.9824s14.2578-31.9824 31.9336-31.9824 31.9824 14.3066 31.9824 31.9824-14.3066 31.9824-31.9824 31.9824Zm3.61328-17.7734v-28.4668c0-2.24609-1.46484-3.75977-3.71094-3.75977-2.14844 0-3.61328 1.51367-3.61328 3.75977v28.4668c0 2.19727 1.46484 3.71094 3.61328 3.71094 2.24609 0 3.71094-1.51367 3.71094-3.71094Zm-17.8223-10.5957h28.418c2.19727 0 3.71094-1.46484 3.71094-3.61328 0-2.19727-1.51367-3.71094-3.71094-3.71094h-28.418c-2.24609 0-3.75977 1.51367-3.75977 3.71094 0 2.14844 1.51367 3.61328 3.75977 3.61328Z"/>
  </g>
  <g transform="matrix(0.2 0 0 0.2 281.506 1933)">
   <path d="m58.5449 14.5508c27.4902 0 49.8047-22.3145 49.8047-49.8047s-22.3145-49.8047-49.8047-49.8047-49.8047 22.3145-49.8047 49.8047 22.3145 49.8047 49.8047 49.8047Zm0-8.30078c-22.9492 0-41.5039-18.5547-41.5039-41.5039s18.5547-41.5039 41.5039-41.5039 41.5039 18.5547 41.5039 41.5039-18.5547 41.5039-41.5039 41.5039Zm4.05273-23.0957v-36.9141c0-2.49023-1.70898-4.19922-4.15039-4.19922-2.39258 0-4.05273 1.70898-4.05273 4.19922v36.9141c0 2.44141 1.66016 4.15039 4.05273 4.15039 2.44141 0 4.15039-1.66016 4.15039-4.15039Zm-22.5586-14.4043h36.9629c2.44141 0 4.15039-1.61133 4.15039-4.00391 0-2.44141-1.70898-4.15039-4.15039-4.15039h-36.9629c-2.49023 0-4.15039 1.70898-4.15039 4.15039 0 2.39258 1.66016 4.00391 4.15039 4.00391Z"/>
  </g>
  <g transform="matrix(0.2 0 0 0.2 304.924 1933)">
   <path d="m74.8535 28.3203c35.1074 0 63.623-28.4668 63.623-63.5742s-28.5156-63.623-63.623-63.623-63.5742 28.5156-63.5742 63.623 28.4668 63.5742 63.5742 63.5742Zm0-9.08203c-30.127 0-54.4922-24.3652-54.4922-54.4922s24.3652-54.4922 54.4922-54.4922 54.4922 24.3652 54.4922 54.4922-24.3652 54.4922-54.4922 54.4922Zm4.44336-30.3223v-48.4863c0-2.73438-1.85547-4.63867-4.54102-4.63867-2.58789 0-4.44336 1.9043-4.44336 4.63867v48.4863c0 2.68555 1.85547 4.58984 4.44336 4.58984 2.68555 0 4.54102-1.85547 4.54102-4.58984Zm-28.7109-19.7754h48.4863c2.68555 0 4.58984-1.80664 4.58984-4.39453 0-2.73438-1.85547-4.58984-4.58984-4.58984h-48.4863c-2.73438 0-4.58984 1.85547-4.58984 4.58984 0 2.58789 1.85547 4.39453 4.58984 4.39453Z"/>
  </g>
  <text style="stroke:none;fill:black;font-family:sans-serif;font-size:13;font-weight:bold;" transform="matrix(1 0 0 1 263 1953)">Design Variations</text>
  <text style="stroke:none;fill:black;font-family:sans-serif;font-size:13;" transform="matrix(1 0 0 1 263 1971)">Symbols are supported in up to nine weights and three scales.</text>
  <text style="stroke:none;fill:black;font-family:sans-serif;font-size:13;" transform="matrix(1 0 0 1 263 1989)">For optimal layout with text and other symbols, vertically align</text>
  <text style="stroke:none;fill:black;font-family:sans-serif;font-size:13;" transform="matrix(1 0 0 1 263 2007)">symbols with the adjacent text.</text>
  <line style="fill:none;stroke:#00AEEF;stroke-width:0.5;opacity:1.0;" x1="776" x2="776" y1="1919" y2="1933"/>
  <g transform="matrix(0.2 0 0 0.2 776 1933)">
   <path d="m16.5527 0.78125c2.58789 0 3.85742-0.976562 4.78516-3.71094l20.5566-57.5195h0.244141l20.6055 57.5195c0.927734 2.73438 2.19727 3.71094 4.73633 3.71094 2.58789 0 4.24805-1.5625 4.24805-4.00391 0-0.830078-0.146484-1.61133-0.537109-2.63672l-22.9004-60.9863c-1.12305-2.97852-3.125-4.49219-6.25-4.49219-3.02734 0-5.07812 1.46484-6.15234 4.44336l-22.9004 61.084c-0.390625 1.02539-0.537109 1.80664-0.537109 2.63672 0 2.44141 1.5625 3.95508 4.10156 3.95508Zm10.2051-20.9473h30.6641c2.00195 0 3.66211-1.66016 3.66211-3.66211 0-2.05078-1.66016-3.66211-3.66211-3.66211h-30.6641c-2.00195 0-3.66211 1.61133-3.66211 3.66211 0 2.00195 1.66016 3.66211 3.66211 3.66211Z"/>
  </g>
  <line style="fill:none;stroke:#00AEEF;stroke-width:0.5;opacity:1.0;" x1="792.836" x2="792.836" y1="1919" y2="1933"/>
  <text style="stroke:none;fill:black;font-family:sans-serif;font-size:13;font-weight:bold;" transform="matrix(1 0 0 1 776 1953)">Margins</text>
  <text style="stroke:none;fill:black;font-family:sans-serif;font-size:13;" transform="matrix(1 0 0 1 776 1971)">Leading and trailing margins on the left and right side of each symbol</text>
  <text style="stroke:none;fill:black;font-family:sans-serif;font-size:13;" transform="matrix(1 0 0 1 776 1989)">can be adjusted by modifying the x-location of the margin guidelines.</text>
  <text style="stroke:none;fill:black;font-family:sans-serif;font-size:13;" transform="matrix(1 0 0 1 776 2007)">Modifications are automatically applied proportionally to all</text>
  <text style="stroke:none;fill:black;font-family:sans-serif;font-size:13;" transform="matrix(1 0 0 1 776 2025)">scales and weights.</text>
  <g transform="matrix(0.2 0 0 0.2 1289 1933)">
   <path d="m14.209 13.1348 7.86133 7.86133c4.29688 4.39453 9.32617 4.10156 13.8672-1.02539l60.6934-68.2129-4.88281-4.88281-60.2539 67.6758c-1.80664 1.95312-3.4668 2.44141-5.81055 0.0976562l-5.17578-5.12695c-2.29492-2.29492-1.80664-3.95508 0.195312-5.81055l67.4805-62.1582-4.88281-4.83398-68.0664 62.5977c-4.98047 4.58984-5.32227 9.47266-1.02539 13.8184Zm44.873-97.4609c-2.05078 2.00195-2.24609 4.88281-1.07422 6.78711 1.12305 1.80664 3.4668 3.02734 6.5918 2.24609 5.85938-1.66016 12.5977-2.39258 18.8965 0.927734l-2.68555 7.12891c-1.61133 4.00391-0.732422 6.88477 1.70898 9.42383l10.2539 10.3027c2.34375 2.39258 4.54102 2.44141 7.08008 1.95312l4.44336-0.732422 2.58789 2.53906-0.195312 2.24609c-0.0976562 2.29492 0.537109 4.29688 2.7832 6.49414l3.36914 3.32031c2.29492 2.29492 5.51758 2.49023 7.8125 0.195312l12.9883-13.0371c2.29492-2.34375 2.14844-5.37109-0.195312-7.66602l-3.41797-3.41797c-2.19727-2.19727-4.05273-3.02734-6.34766-2.88086l-2.34375 0.244141-2.44141-2.44141 1.02539-4.6875c0.634766-2.73438-0.244141-4.98047-2.88086-7.61719l-11.2793-11.1816c-12.9395-12.8418-35.5957-11.0352-46.6797-0.146484Zm7.08008 2.05078c8.78906-6.39648 25.9766-5.66406 33.6914 1.95312l12.3047 12.207c1.02539 1.02539 1.2207 1.80664 0.927734 3.32031l-1.46484 6.64062 6.73828 6.68945 4.39453-0.244141c1.12305-0.0488281 1.51367 0.0488281 2.34375 0.878906l2.53906 2.49023-10.8398 10.8398-2.49023-2.49023c-0.830078-0.878906-0.976562-1.2207-0.927734-2.39258l0.292969-4.3457-6.68945-6.73828-6.83594 1.17188c-1.41602 0.292969-2.05078 0.195312-3.17383-0.878906l-8.93555-8.88672c-1.07422-1.02539-1.17188-1.70898-0.488281-3.36914l4.58984-11.4746c-6.10352-6.34766-17.041-7.51953-25.5859-4.58984-0.683594 0.244141-0.927734-0.390625-0.390625-0.78125Z"/>
  </g>
  <text style="stroke:none;fill:black;font-family:sans-serif;font-size:13;font-weight:bold;" transform="matrix(1 0 0 1 1289 1953)">Exporting</text>
  <text style="stroke:none;fill:black;font-family:sans-serif;font-size:13;" transform="matrix(1 0 0 1 1289 1971)">Symbols should be outlined when exporting to ensure the</text>
  <text style="stroke:none;fill:black;font-family:sans-serif;font-size:13;" transform="matrix(1 0 0 1 1289 1989)">design is preserved when submitting to Xcode.</text>
  <text id="template-version" style="stroke:none;fill:black;font-family:sans-serif;font-size:13;text-anchor:end;" transform="matrix(1 0 0 1 3036 1933)">Template v.7.0</text>
  <text style="stroke:none;fill:black;font-family:sans-serif;font-size:13;text-anchor:end;" transform="matrix(1 0 0 1 3036 1951)">Requires Xcode 26 or greater</text>
  <text id="descriptive-name" style="stroke:none;fill:black;font-family:sans-serif;font-size:13;text-anchor:end;" transform="matrix(1 0 0 1 3036 1969)">Generated from viewfinder</text>
  <text style="stroke:none;fill:black;font-family:sans-serif;font-size:13;text-anchor:end;" transform="matrix(1 0 0 1 3036 1987)">Typeset at 100.0 points</text>
  <text style="stroke:none;fill:black;font-family:sans-serif;font-size:13;" transform="matrix(1 0 0 1 263 726)">Small</text>
  <text style="stroke:none;fill:black;font-family:sans-serif;font-size:13;" transform="matrix(1 0 0 1 263 1156)">Medium</text>
  <text style="stroke:none;fill:black;font-family:sans-serif;font-size:13;" transform="matrix(1 0 0 1 263 1586)">Large</text>
 </g>
 <g id="Guides">
  <g id="H-reference" style="fill:#27AAE1;stroke:none;" transform="matrix(1 0 0 1 339 696)">
   <path d="M0.993654 0L3.63775 0L29.3281-67.1323L30.0303-67.1323L30.0303-70.459L28.1226-70.459ZM11.6885-24.4799L46.9815-24.4799L46.2315-26.7285L12.4385-26.7285ZM55.1196 0L57.7637 0L30.6382-70.459L29.4326-70.459L29.4326-67.1323Z"/>
  </g>
  <line id="Baseline-S" style="fill:none;stroke:#27AAE1;opacity:1;stroke-width:0.5;" x1="263" x2="3036" y1="696" y2="696"/>
  <line id="Capline-S" style="fill:none;stroke:#27AAE1;opacity:1;stroke-width:0.5;" x1="263" x2="3036" y1="625.541" y2="625.541"/>
  <g id="H-reference" style="fill:#27AAE1;stroke:none;" transform="matrix(1 0 0 1 339 1126)">
   <path d="M0.993654 0L3.63775 0L29.3281-67.1323L30.0303-67.1323L30.0303-70.459L28.1226-70.459ZM11.6885-24.4799L46.9815-24.4799L46.2315-26.7285L12.4385-26.7285ZM55.1196 0L57.7637 0L30.6382-70.459L29.4326-70.459L29.4326-67.1323Z"/>
  </g>
  <line id="Baseline-M" style="fill:none;stroke:#27AAE1;opacity:1;stroke-width:0.5;" x1="263" x2="3036" y1="1126" y2="1126"/>
  <line id="Capline-M" style="fill:none;stroke:#27AAE1;opacity:1;stroke-width:0.5;" x1="263" x2="3036" y1="1055.54" y2="1055.54"/>
  <g id="H-reference" style="fill:#27AAE1;stroke:none;" transform="matrix(1 0 0 1 339 1556)">
   <path d="M0.993654 0L3.63775 0L29.3281-67.1323L30.0303-67.1323L30.0303-70.459L28.1226-70.459ZM11.6885-24.4799L46.9815-24.4799L46.2315-26.7285L12.4385-26.7285ZM55.1196 0L57.7637 0L30.6382-70.459L29.4326-70.459L29.4326-67.1323Z"/>
  </g>
  <line id="Baseline-L" style="fill:none;stroke:#27AAE1;opacity:1;stroke-width:0.5;" x1="263" x2="3036" y1="1556" y2="1556"/>
  <line id="Capline-L" style="fill:none;stroke:#27AAE1;opacity:1;stroke-width:0.5;" x1="263" x2="3036" y1="1485.54" y2="1485.54"/>
  <line id="right-margin-Black-S" style="fill:none;stroke:#00AEEF;stroke-width:0.5;opacity:1.0;" x1="2983.25" x2="2983.25" y1="600.785" y2="720.121"/>
  <line id="left-margin-Black-S" style="fill:none;stroke:#00AEEF;stroke-width:0.5;opacity:1.0;" x1="2883.55" x2="2883.55" y1="600.785" y2="720.121"/>
  <line id="right-margin-Regular-S" style="fill:none;stroke:#00AEEF;stroke-width:0.5;opacity:1.0;" x1="1497.57" x2="1497.57" y1="600.785" y2="720.121"/>
  <line id="left-margin-Regular-S" style="fill:none;stroke:#00AEEF;stroke-width:0.5;opacity:1.0;" x1="1402.11" x2="1402.11" y1="600.785" y2="720.121"/>
  <line id="right-margin-Ultralight-S" style="fill:none;stroke:#00AEEF;stroke-width:0.5;opacity:1.0;" x1="604.58" x2="604.58" y1="600.785" y2="720.121"/>
  <line id="left-margin-Ultralight-S" style="fill:none;stroke:#00AEEF;stroke-width:0.5;opacity:1.0;" x1="514.842" x2="514.842" y1="600.785" y2="720.121"/>
 </g>
 <g id="Symbols">
  <g id="Black-S" transform="matrix(1 0 0 1 2883.55 696)">
   <path class="SFSymbolsPreviewWireframe" d="M9.76562-50.9766C9.76562-47.3145 12.6953-44.3848 16.3574-44.3848C20.0195-44.3848 22.9492-47.3145 22.9492-50.9766L22.9492-58.1055C22.9492-60.7422 24.2676-62.1094 26.9531-62.1094L34.2773-62.1094C37.9883-62.1094 40.8691-64.9902 40.8691-68.7012C40.8691-72.4121 37.9883-75.293 34.2773-75.293L26.9531-75.293C16.5527-75.293 9.76562-68.457 9.76562-58.1055ZM89.9414-50.9766L89.9414-58.1055C89.9414-68.457 83.1543-75.293 72.7539-75.293L65.4297-75.293C61.7188-75.293 58.8379-72.4121 58.8379-68.7012C58.8379-64.9902 61.7188-62.1094 65.4297-62.1094L72.7539-62.1094C75.4395-62.1094 76.7578-60.7422 76.7578-58.1055L76.7578-50.9766C76.7578-47.3145 79.6875-44.3848 83.3496-44.3848C87.0117-44.3848 89.9414-47.3145 89.9414-50.9766ZM9.76562-19.3848L9.76562-12.2559C9.76562-1.9043 16.5527 4.93164 26.9531 4.93164L34.2773 4.93164C37.9883 4.93164 40.8691 2.05078 40.8691-1.66016C40.8691-5.37109 37.9883-8.25195 34.2773-8.25195L26.9531-8.25195C24.2676-8.25195 22.9492-9.61914 22.9492-12.2559L22.9492-19.3848C22.9492-23.0469 20.0195-25.9766 16.3574-25.9766C12.6953-25.9766 9.76562-23.0469 9.76562-19.3848ZM89.9414-19.3848C89.9414-23.0469 87.0117-25.9766 83.3496-25.9766C79.6875-25.9766 76.7578-23.0469 76.7578-19.3848L76.7578-12.2559C76.7578-9.61914 75.4395-8.25195 72.7539-8.25195L65.4297-8.25195C61.7188-8.25195 58.8379-5.37109 58.8379-1.66016C58.8379 2.05078 61.7188 4.93164 65.4297 4.93164L72.7539 4.93164C83.1543 4.93164 89.9414-1.9043 89.9414-12.2559ZM50.1423-14.1229C56.8773-14.1229 62.9429-18.078 65.71-24.3048C67.0123-27.2839 64.8543-28.8074 62.6422-27.6986C60.9546-26.8772 58.8415-26.4039 57.2378-26.4039C49.5599-26.4039 45.3427-30.6516 45.3427-38.3294C45.3427-39.9024 45.8141-42.0088 46.5799-43.5945C47.7696-46.0654 45.8335-47.9222 43.0993-46.7341C36.9733-43.9804 33.1267-37.8924 33.1267-31.1371C33.1267-21.7146 40.7473-14.1229 50.1423-14.1229ZM28.7778-10.3541L70.9279-10.3541C74.7423-10.3541 77.7729-13.5936 77.7729-17.3589C77.7729-21.2095 74.7707-24.3636 70.9279-24.3636L28.7778-24.3636C24.9606-24.3636 21.9327-21.1516 21.9327-17.3589C21.9327-13.6514 24.9896-10.3541 28.7778-10.3541ZM28.7778-13.7326L70.9279-13.7326C72.8564-13.7326 74.3628-15.4552 74.3628-17.3304C74.3628-19.2938 72.8854-20.9312 70.9279-20.9312L28.7778-20.9312C26.8508-20.9312 25.3396-19.236 25.3396-17.3304C25.3396-15.5131 26.8797-13.7326 28.7778-13.7326ZM63.621-53.9918L66.6871-48.4225L67.618-47.1262C68.1908-46.3798 68.8444-45.7889 69.9045-45.7889C71.3518-45.7889 72.4441-46.9406 72.4441-48.2693C72.4441-49.1756 71.8565-49.9753 71.1479-50.6579L65.728-55.817C65.0469-56.4767 64.4467-56.7478 63.6195-56.7478C62.7879-56.7478 62.1892-56.4767 61.5066-55.817L56.0867-50.6579C55.3783-49.9753 54.792-49.1756 54.792-48.2693C54.792-46.9406 55.8828-45.7889 57.3331-45.7889C58.3917-45.7889 59.0438-46.3798 59.6181-47.1262L60.537-48.409ZM65.6506-52.7395C65.5394-53.8472 64.7288-54.769 63.621-54.769C62.5088-54.769 61.7012-53.8472 61.59-52.7395L60.9792-46.6339L60.9503-39.8201C60.9503-38.3544 62.1478-37.1035 63.621-37.1035C65.0898-37.1035 66.2873-38.3544 66.2873-39.8201L66.2873-46.6339Z"/>
  </g>
  <g id="Regular-S" transform="matrix(1 0 0 1 1402.11 696)">
   <path class="SFSymbolsPreviewWireframe" d="M9.76562-51.8066C9.76562-49.9023 11.377-48.291 13.2812-48.291C15.2344-48.291 16.7969-49.9023 16.7969-51.8066L16.7969-58.9844C16.7969-63.3789 19.5312-66.1133 23.9746-66.1133L31.2988-66.1133C33.2031-66.1133 34.8145-67.7246 34.8145-69.6289C34.8145-71.582 33.2031-73.1934 31.2988-73.1934L23.9746-73.1934C15.1855-73.1934 9.76562-67.6758 9.76562-58.9844ZM85.6934-51.8066L85.6934-58.9844C85.6934-67.6758 80.2734-73.1934 71.5332-73.1934L64.1602-73.1934C62.2559-73.1934 60.6445-71.582 60.6445-69.6289C60.6445-67.7246 62.2559-66.1133 64.1602-66.1133L71.5332-66.1133C75.9766-66.1133 78.6621-63.3789 78.6621-58.9844L78.6621-51.8066C78.6621-49.9023 80.2734-48.291 82.1777-48.291C84.082-48.291 85.6934-49.9023 85.6934-51.8066ZM9.76562-18.5547L9.76562-11.4258C9.76562-2.68555 15.1855 2.7832 23.9746 2.7832L31.2988 2.7832C33.2031 2.7832 34.8145 1.17188 34.8145-0.732422C34.8145-2.68555 33.2031-4.29688 31.2988-4.29688L23.9746-4.29688C19.5312-4.29688 16.7969-7.03125 16.7969-11.4258L16.7969-18.5547C16.7969-20.5078 15.2344-22.1191 13.2812-22.1191C11.377-22.1191 9.76562-20.5078 9.76562-18.5547ZM85.6934-18.5547C85.6934-20.5078 84.082-22.1191 82.1777-22.1191C80.2734-22.1191 78.6621-20.5078 78.6621-18.5547L78.6621-11.4258C78.6621-7.03125 75.9766-4.29688 71.5332-4.29688L64.1602-4.29688C62.2559-4.29688 60.6445-2.68555 60.6445-0.732422C60.6445 1.17188 62.2559 2.7832 64.1602 2.7832L71.5332 2.7832C80.2734 2.7832 85.6934-2.68555 85.6934-11.4258ZM47.4658-14.0253C54.3382-14.0253 60.1296-18.1275 62.7232-23.7678C63.6452-25.7834 62.248-26.8817 60.6443-26.2164C59.2238-25.6455 57.2493-25.283 55.656-25.283C46.951-25.283 42.0341-30.2276 42.0341-38.9326C42.0341-40.5457 42.4579-42.6412 43.0724-44.0474C43.8886-45.892 42.5133-47.1319 40.6168-46.3018C34.5287-43.5837 30.6314-37.5414 30.6314-30.8736C30.6314-21.5543 38.1726-14.0253 47.4658-14.0253ZM25.7865-11.0404L69.6744-11.0404C72.8137-11.0404 75.3511-13.6369 75.3511-16.6978C75.3511-19.809 72.8257-22.3552 69.6744-22.3552L25.7865-22.3552C22.6457-22.3552 20.1096-19.7847 20.1096-16.6978C20.1096-13.6611 22.6578-11.0404 25.7865-11.0404ZM25.7865-14.4129L69.6744-14.4129C71.0898-14.4129 72.2411-15.6126 72.2411-16.962C72.2411-18.3633 71.102-19.5127 69.6744-19.5127L25.7865-19.5127C24.3572-19.5127 23.2179-18.3391 23.2179-16.962C23.2179-15.6368 24.3693-14.4129 25.7865-14.4129ZM59.0221-53.4604L61.9414-49.143L63.5908-47.3268C64.0183-46.8266 64.5377-46.4778 65.2425-46.4778C66.3543-46.4778 67.1726-47.3064 67.1726-48.3681C67.1726-49.0074 66.8549-49.5441 66.3422-50.0168L60.6271-55.3463C60.0522-55.869 59.6282-56.0689 59.036-56.0689C58.456-56.0689 58.0181-55.869 57.4571-55.3463L51.7421-50.0168C51.2295-49.5441 50.8978-49.0074 50.8978-48.3681C50.8978-47.3064 51.7299-46.4778 52.8434-46.4778C53.5327-46.4778 54.066-46.8266 54.4795-47.3268L56.2697-49.2682ZM60.7542-52.4441C60.664-53.3997 59.9777-54.1763 59.0221-54.1763C58.0788-54.1763 57.3941-53.3997 57.3038-52.4441L56.8594-47.6707L56.8473-39.3633C56.8473-38.1126 57.8409-37.0824 59.0221-37.0824C60.2156-37.0824 61.2092-38.1126 61.2092-39.3633L61.2092-47.6707Z"/>
  </g>
  <g id="Ultralight-S" transform="matrix(1 0 0 1 514.842 696)">
   <path class="SFSymbolsPreviewWireframe" d="M9.76562-49.6724C9.76562-49.085 10.2417-48.5635 10.8745-48.5635C11.4654-48.5635 11.9834-49.085 11.9834-49.6724L11.9834-57.3042C11.9834-64.1963 15.8076-68.0659 22.7031-68.0659L30.3906-68.0659C30.978-68.0659 31.4541-68.542 31.4541-69.1748C31.4541-69.7656 30.978-70.2871 30.3906-70.2871L22.7031-70.2871C14.4136-70.2871 9.76562-65.5869 9.76562-57.3042ZM79.9717-49.6724L79.9717-57.3042C79.9717-65.5869 75.3692-70.2871 67.0376-70.2871L59.3921-70.2871C58.7593-70.2871 58.2832-69.7656 58.2832-69.1748C58.2832-68.542 58.7593-68.0659 59.3921-68.0659L67.0376-68.0659C73.9331-68.0659 77.7993-64.1963 77.7993-57.3042L77.7993-49.6724C77.7993-49.085 78.2754-48.5635 78.8628-48.5635C79.4956-48.5635 79.9717-49.085 79.9717-49.6724ZM9.76562-20.6435L9.76562-13.0151C9.76562-4.72899 14.4136-0.0322044 22.7031-0.0322044L30.3906-0.0322044C30.978-0.0322044 31.4541-0.553697 31.4541-1.14111C31.4541-1.77735 30.978-2.25343 30.3906-2.25343L22.7031-2.25343C15.8076-2.25343 11.9834-6.12305 11.9834-13.0151L11.9834-20.6435C11.9834-21.2344 11.4654-21.7559 10.8745-21.7559C10.2417-21.7559 9.76562-21.2344 9.76562-20.6435ZM79.9717-20.6435C79.9717-21.2344 79.4956-21.7559 78.8628-21.7559C78.2754-21.7559 77.7993-21.2344 77.7993-20.6435L77.7993-13.0151C77.7993-6.12305 73.9331-2.25343 67.0376-2.25343L59.3921-2.25343C58.7593-2.25343 58.2832-1.77735 58.2832-1.14111C58.2832-0.553697 58.7593-0.0322044 59.3921-0.0322044L67.0376-0.0322044C75.3692-0.0322044 79.9717-4.72899 79.9717-13.0151ZM44.9327-15.0807C51.5741-15.0807 57.1074-19.0641 59.5156-24.4758C59.8626-25.1797 59.4355-25.7307 58.6765-25.4609C57.6141-25.0559 55.6047-24.5183 53.4034-24.5183C43.9264-24.5183 38.564-29.8763 38.564-39.3533C38.564-41.4308 38.9834-43.2181 39.6688-44.915C39.99-45.7066 39.4552-46.1857 38.6893-45.8544C33.9498-43.9128 28.9198-38.5789 28.9198-31.1036C28.9198-22.2493 36.0883-15.0807 44.9327-15.0807ZM21.4347-13.8782L68.3043-13.8782C70.0102-13.8782 71.3957-15.2295 71.3957-16.8807C71.3957-18.542 70.0102-19.8833 68.3043-19.8833L21.4347-19.8833C19.7433-19.8833 18.3432-18.542 18.3432-16.8807C18.3432-15.2295 19.7433-13.8782 21.4347-13.8782ZM21.4347-16.0905L68.3043-16.0905C68.8836-16.0905 69.3882-16.522 69.3882-17.0712C69.3882-17.616 68.8836-18.0375 68.3043-18.0375L21.4347-18.0375C20.8454-18.0375 20.365-17.616 20.365-17.0712C20.365-16.522 20.8454-16.0905 21.4347-16.0905ZM54.8299-52.7761L57.508-49.8287L60.3673-46.9163C60.5695-46.714 60.8119-46.6151 61.0499-46.6151C61.559-46.6151 61.9391-46.9852 61.9391-47.5087C61.9391-47.7899 61.8314-48.0165 61.5803-48.2476L55.547-54.0904C55.2889-54.304 55.0823-54.4073 54.8399-54.4073C54.622-54.4073 54.4053-54.304 54.1573-54.0904L48.124-48.2476C47.8729-48.0165 47.7552-47.7899 47.7552-47.5087C47.7552-46.9852 48.1453-46.6151 48.6401-46.6151C48.8824-46.6151 49.1348-46.714 49.327-46.9163L52.2721-49.9189ZM55.6716-52.3058C55.6415-52.7761 55.3002-53.1475 54.8299-53.1475C54.384-53.1475 54.0283-52.7761 53.9983-52.3058L53.8392-48.5548L53.8392-38.2675C53.8392-37.6826 54.2951-37.2023 54.8299-37.2023C55.3892-37.2023 55.8451-37.6826 55.8451-38.2675L55.8451-48.5548Z"/>
  </g>
 </g>
 <g id="LayerTree">
  <g class="monochrome-0 multicolor-0:tintColor hierarchical-0:secondary"/>
  <g class="monochrome-1 multicolor-1:tintColor hierarchical-1:primary">
   <g class="shapeGroupLayer-0"/>
   <g class="shapeGroupLayer-1"/>
   <g class="shapeGroupLayer-2"/>
   <g class="shapeGroupLayer-3"/>
  </g>
 </g>
</svg>
