<?xml version="1.0" encoding="UTF-8"?>
<svg height="600" width="800" xmlns="http://www.w3.org/2000/svg" xmlns:xlink="http://www.w3.org/1999/xlink">
    <g id="Notes" font-family="'LucidaGrande', 'Lucida Grande', sans-serif" font-size="13">
        <rect fill="white" height="600.0" width="800.0" x="0.0" y="0.0" />
        <g font-size="13">
            <text x="18.0" y="176.0">Small</text>
            <text x="18.0" y="376.0">Medium</text>
            <text x="18.0" y="576.0">Large</text>
        </g>
        <g font-size="9">
            <text x="250.0" y="30.0">Ultralight</text>
            <text x="450.0" y="30.0">Regular</text>
            <text x="650.0" y="30.0">Black</text>
            <text id="template-version" fill="#505050" text-anchor="end" x="785.0" y="575.0">Template v.3.0</text>
            <a href="https://wangchujiang.com/#/app">
                <text fill="#505050" text-anchor="end" x="785.0" y="590.0">https://wangchujiang.com/#/app</text>
            </a>
        </g>
    </g>
    <g id="Guides" stroke="rgb(39, 170, 225)" stroke-width="0.5">
        <path id="Capline-S" d="M18,76 l800,0" />
        <path id="H-reference" d="M85,145.755 L87.685,145.755 L113.369,79.287 L114.052,79.287 L114.052,76 L112.148,76 L85,145.755 Z M95.693,121.536 L130.996,121.536 L130.263,119.313 L96.474,119.313 L95.693,121.536 Z M139.15,145.755 L141.787,145.755 L114.638,76 L113.466,76 L113.466,79.287 L139.15,145.755 Z" stroke="none" />
        <path id="Baseline-S" d="M18,146 l800,0" />
        <path id="left-margin-Ultralight-S" d="M211,56 l0,110" />
        <path id="right-margin-Ultralight-S" d="M319,56 l0,110" />
        <path id="left-margin-Regular-S" d="M411,56 l0,110" />
        <path id="right-margin-Regular-S" d="M519,56 l0,110" />
        <path id="left-margin-Black-S" d="M611,56 l0,110" />
        <path id="right-margin-Black-S" d="M719,56 l0,110" />
        <path id="Capline-M" d="M18,276 l800,0" />
        <path id="Baseline-M" d="M18,346 l800,0" />
        <path id="Capline-L" d="M18,476 l800,0" />
        <path id="Baseline-L" d="M18,546 l800,0" />
    </g>
    <g id="Symbols">
        <g id="Ultralight-S">
            <path d="M280.927,105.019 L288.518,105.019 C291.519,105.019 293.812,104.326 295.387,102.973 C296.972,101.612 297.769,99.656 297.769,97.098 C297.769,94.539 297.011,92.399 295.474,91.047 C293.945,89.705 291.62,89.037 288.518,89.037 L277.465,89.037 L265.474,113.764 L262.07,120.835 L262.058,120.81 L252.98,139.529 L248.53,139.529 L221,82.471 L251.476,82.471 L258.202,96.575 L254.333,104.619 L246.899,89.037 L231.881,89.037 L250.754,128.202 L258.206,112.737 L258.192,112.709 L262.069,104.687 L262.077,104.704 L272.79,82.471 L287.899,82.471 C293.513,82.471 297.769,83.673 300.647,86.072 C303.525,88.47 304.973,92 304.973,96.692 C304.973,98.968 304.531,100.999 303.632,102.797 C302.732,104.596 301.459,106.043 299.801,107.138 C302.836,108.901 305.13,111.056 306.668,113.594 C308.219,116.153 309,119.063 309,122.38 C309,127.655 307.271,131.824 303.808,134.905 C300.335,137.994 295.628,139.528 289.7,139.528 L270.985,139.528 L265.927,128.922 L269.803,120.905 L275.552,132.965 L291.095,132.965 C294.344,132.965 296.911,132.015 298.777,130.107 C300.65,128.191 301.583,125.573 301.583,122.273 C301.583,118.972 300.648,116.399 298.777,114.476 C296.904,112.553 294.341,111.582 291.095,111.582 L280.927,111.582 L280.927,105.019 Z" />
        </g>
        <g id="Regular-S">
            <path d="M480.927,105.019 L488.518,105.019 C491.519,105.019 493.812,104.326 495.387,102.973 C496.972,101.612 497.769,99.656 497.769,97.098 C497.769,94.539 497.011,92.399 495.474,91.047 C493.945,89.705 491.62,89.037 488.518,89.037 L477.465,89.037 L465.474,113.764 L462.07,120.835 L462.058,120.81 L452.98,139.529 L448.53,139.529 L421,82.471 L451.476,82.471 L458.202,96.575 L454.333,104.619 L446.899,89.037 L431.881,89.037 L450.754,128.202 L458.206,112.737 L458.192,112.709 L462.069,104.687 L462.077,104.704 L472.79,82.471 L487.899,82.471 C493.513,82.471 497.769,83.673 500.647,86.072 C503.525,88.47 504.973,92 504.973,96.692 C504.973,98.968 504.531,100.999 503.632,102.797 C502.732,104.596 501.459,106.043 499.801,107.138 C502.836,108.901 505.13,111.056 506.668,113.594 C508.219,116.153 509,119.063 509,122.38 C509,127.655 507.271,131.824 503.808,134.905 C500.335,137.994 495.628,139.528 489.7,139.528 L470.985,139.528 L465.927,128.922 L469.803,120.905 L475.552,132.965 L491.095,132.965 C494.344,132.965 496.911,132.015 498.777,130.107 C500.65,128.191 501.583,125.573 501.583,122.273 C501.583,118.972 500.648,116.399 498.777,114.476 C496.904,112.553 494.341,111.582 491.095,111.582 L480.927,111.582 L480.927,105.019 Z" />
        </g>
        <g id="Black-S">
            <path d="M680.927,105.019 L688.518,105.019 C691.519,105.019 693.812,104.326 695.387,102.973 C696.972,101.612 697.769,99.656 697.769,97.098 C697.769,94.539 697.011,92.399 695.474,91.047 C693.945,89.705 691.62,89.037 688.518,89.037 L677.465,89.037 L665.474,113.764 L662.07,120.835 L662.058,120.81 L652.98,139.529 L648.53,139.529 L621,82.471 L651.476,82.471 L658.202,96.575 L654.333,104.619 L646.899,89.037 L631.881,89.037 L650.754,128.202 L658.206,112.737 L658.192,112.709 L662.069,104.687 L662.077,104.704 L672.79,82.471 L687.899,82.471 C693.513,82.471 697.769,83.673 700.647,86.072 C703.525,88.47 704.972,92 704.972,96.692 C704.972,98.968 704.531,100.999 703.632,102.797 C702.732,104.596 701.459,106.043 699.801,107.138 C702.836,108.901 705.13,111.056 706.668,113.594 C708.219,116.153 709,119.063 709,122.38 C709,127.655 707.271,131.824 703.808,134.905 C700.335,137.994 695.628,139.528 689.7,139.528 L670.985,139.528 L665.927,128.922 L669.803,120.905 L675.552,132.965 L691.095,132.965 C694.344,132.965 696.911,132.015 698.777,130.107 C700.65,128.191 701.583,125.573 701.583,122.273 C701.583,118.972 700.648,116.399 698.777,114.476 C696.904,112.553 694.341,111.582 691.095,111.582 L680.927,111.582 L680.927,105.019 Z" />
        </g>
    </g>
</svg>